<svg version="1.1" id="Layer_1" xmlns="http://www.w3.org/2000/svg" xmlns:xlink="http://www.w3.org/1999/xlink" x="0px" y="0px"
	 viewBox="0 0 8762.8 2004.7" style="enable-background:new 0 0 8762.8 2004.7;" xml:space="preserve">
<style type="text/css">
	.st0{fill-rule:evenodd;clip-rule:evenodd;fill:#0C4F8B;}
	.st1{fill:#7C7C7C;}
</style>
<g>
	<path class="st0" d="M6502.7,1723.7c-37,5-75.1,7.6-114,7.6c-358.9,0-649.9-221.6-649.9-495.1c0-270.4,284.6-490.2,638.1-495
		c-12.3-41.2-18.8-84.1-18.8-128.2c0-319.9,341.5-579.2,762.7-579.2c198.7,0,379.6,57.7,515.3,152.2l-822.6,1093.8l360.2-98.5
		l-504,673.6C6602.2,1818.7,6545.4,1774.2,6502.7,1723.7L6502.7,1723.7z M8140.1,388.1c139.8,35.7,240.4,135.6,240.4,253.2
		c0,44.6-14.5,86.7-40.1,123.7c250,82.1,422.4,255.4,422.4,455.9c0,279.8-335.5,506.5-749.3,506.5c-100.2,0-195.8-13.3-283.1-37.5
		c-108.3,157.4-348.2,266.8-626.7,266.8c-123.3,0-239.1-21.5-339.1-59L8314.2,687.7l-571.2,4.7L8140.1,388.1L8140.1,388.1z"/>
</g>
<g>
	<g>
		<path d="M5738.8,525.8c0,26.8-21,47.7-48.3,47.7c-27,0-48.6-21-48.6-47.7c0-26.2,21.6-47.1,48.6-47.1
			C5717.8,478.7,5738.8,499.7,5738.8,525.8z M5654,525.8c0,21,15.5,37.7,36.8,37.7c20.7,0,36-16.7,36-37.4c0-21-15.2-37.9-36.2-37.9
			C5669.5,488.2,5654,505.1,5654,525.8z M5683,550.6h-10.9v-47.2c4.3-0.9,10.4-1.4,18.1-1.4c8.9,0,13,1.4,16.4,3.4
			c2.6,2,4.6,5.7,4.6,10.4c0,5.2-4,9.2-9.8,10.9v0.6c4.6,1.8,7.2,5.2,8.6,11.5c1.4,7.2,2.3,10.1,3.4,11.8h-11.8
			c-1.4-1.7-2.3-6-3.7-11.5c-0.9-5.2-3.7-7.5-9.8-7.5h-5.1V550.6z M5683.3,523.8h5.1c6,0,10.9-2,10.9-6.9c0-4.3-3.2-7.2-10.1-7.2
			c-2.9,0-4.9,0.3-6,0.6V523.8z"/>
	</g>
</g>
<g>
	<path d="M8.3,953.4c0-51,9.2-101.4,27.7-151.2s45.3-94.4,80.6-133.6s78.5-71,129.5-95.3c51-24.3,109.1-36.5,174.2-36.5
		c76.9,0,143.4,16.9,199.5,50.6c56.1,33.8,97.9,77.7,125.3,131.8l-124.8,85.9c-11-23.5-24.3-43.3-40-59.4s-32.6-28.8-50.6-38.3
		c-18-9.4-36.9-16.3-56.5-20.6c-19.6-4.3-38.8-6.5-57.7-6.5c-40.8,0-76.3,8.2-106.5,24.7c-30.2,16.5-55.3,37.9-75.3,64.2
		s-35.1,56.1-45.3,89.4s-15.3,66.5-15.3,99.5c0,36.9,5.9,72.4,17.7,106.5c11.8,34.1,28.4,64.1,50,90c21.6,25.9,47.5,46.7,77.7,62.4
		c30.2,15.7,63.4,23.5,99.5,23.5c18.8,0,38.4-2.3,58.8-7.1c20.4-4.7,39.8-12.2,58.3-22.4s35.5-23.3,51.2-39.4
		c15.7-16.1,28.2-35.5,37.7-58.2l133,76.5c-13.3,31.4-32.4,59-57.1,83s-52.6,44.1-83.6,60.6c-31,16.5-64.1,29-99.5,37.7
		c-35.3,8.6-69.8,12.9-103.6,12.9c-59.6,0-114.2-12.5-163.6-37.7s-92-57.9-127.7-98.3s-63.6-86.3-83.6-137.7
		C18.3,1059.1,8.3,1006.8,8.3,953.4z"/>
	<path d="M850.1,517.9h157.7v661.5c0,22.8,5.5,40.4,16.5,53s26.7,18.8,47.1,18.8c9.4,0,19.8-1.6,31.2-4.7s22.2-7.1,32.4-11.8
		l21.2,120.1c-21.2,10.2-45.9,18-74.2,23.5c-28.2,5.5-53.8,8.2-76.5,8.2c-49.4,0-87.7-13.1-114.8-39.4s-40.6-63.8-40.6-112.4V517.9z
		"/>
	<path d="M1509.3,1388.9c-50.2,0-95.3-8.6-135.4-25.9s-74-40.6-101.8-70c-27.9-29.4-49.2-63.4-64.2-101.8
		c-14.9-38.4-22.4-78.9-22.4-121.2c0-43.2,7.5-84,22.4-122.4c14.9-38.4,36.3-72.4,64.2-101.8c27.8-29.4,61.8-52.8,101.8-70
		s85.1-25.9,135.4-25.9s95.1,8.6,134.8,25.9s73.4,40.6,101.2,70c27.8,29.4,49.2,63.4,64.1,101.8c14.9,38.5,22.4,79.3,22.4,122.4
		c0,42.4-7.5,82.8-22.4,121.2c-14.9,38.5-36.1,72.4-63.6,101.8c-27.5,29.4-61.2,52.8-101.2,70
		C1604.6,1380.3,1559.5,1388.9,1509.3,1388.9z M1348.1,1069.9c0,27.5,4.1,52.4,12.4,74.8c8.2,22.4,19.6,41.8,34.1,58.3
		s31.6,29.2,51.2,38.2s40.8,13.5,63.6,13.5s43.9-4.5,63.6-13.5c19.6-9,36.7-21.8,51.2-38.2s25.9-36.1,34.1-58.8
		c8.2-22.8,12.4-47.9,12.4-75.3c0-26.7-4.1-51.4-12.4-74.1c-8.2-22.8-19.6-42.4-34.1-58.9c-14.5-16.5-31.6-29.2-51.2-38.2
		c-19.6-9-40.8-13.5-63.6-13.5s-43.9,4.7-63.6,14.1s-36.7,22.4-51.2,38.8c-14.5,16.5-25.9,36.1-34.1,58.9
		C1352.2,1018.5,1348.1,1043.3,1348.1,1069.9z"/>
	<path d="M2126.3,1388.9c-63.6,0-111.8-20.4-144.8-61.2c-33-40.8-49.4-101.2-49.4-181.2V760.4h157.7v351.9
		c0,95,34.1,142.4,102.4,142.4c30.6,0,60.2-9.2,88.9-27.7s52-46.5,70-84.2V760.4h157.7v435.5c0,16.5,2.9,28.2,8.8,35.3
		c5.9,7.1,15.5,11,28.8,11.8v134.2c-15.7,3.1-28.8,5.1-39.4,5.9c-10.6,0.8-20.2,1.2-28.8,1.2c-28.2,0-51.2-6.5-68.9-19.4
		s-28.1-30.8-31.2-53.5l-3.5-49.4c-27.5,42.4-62.8,74.2-105.9,95.3C2225.6,1378.3,2178.1,1388.9,2126.3,1388.9z"/>
	<path d="M2921,1388.9c-42.4,0-81.6-8.2-117.7-24.7c-36.1-16.5-67.1-39.2-93-68.3s-46.1-63-60.6-101.8s-21.8-80.6-21.8-125.4
		c0-44.7,6.9-86.3,20.6-124.8c13.7-38.4,32.8-72.2,57.1-101.2c24.3-29,53.3-51.8,87.1-68.3c33.8-16.5,70.6-24.7,110.6-24.7
		c45.5,0,86.5,11,123,33c36.5,22,64.9,50.6,85.3,85.9V517.9h157.7v677.9c0,16.5,2.7,28.2,8.2,35.3s14.9,11,28.2,11.8v134.2
		c-27.5,5.5-49.8,8.2-67.1,8.2c-28.2,0-51.4-7.1-69.5-21.2s-28.2-32.6-30.6-55.3l-3.5-38.8c-22.8,39.2-53.6,68.9-92.4,88.9
		C3004,1378.9,2963.4,1388.9,2921,1388.9z M2962.2,1254.7c14.9,0,30.2-2.5,45.9-7.6s30.2-12.4,43.5-21.8c13.3-9.4,25.3-20.4,35.9-33
		s18.6-26.3,24.1-41.2V1004c-6.3-17.2-15.1-33.1-26.5-47.7s-24.3-27.1-38.8-37.7s-29.8-19-45.9-25.3c-16.1-6.3-32-9.4-47.7-9.4
		c-23.5,0-45.3,5.1-65.3,15.3c-20,10.2-37.1,24.1-51.2,41.8s-25.1,37.9-33,60.6c-7.8,22.8-11.8,46.3-11.8,70.6
		c0,25.9,4.3,49.8,12.9,71.8s20.4,41.2,35.3,57.7c14.9,16.5,32.8,29.4,53.6,38.8C2914.1,1250,2937.1,1254.7,2962.2,1254.7z"/>
	<path d="M4113.5,1161.7c0,35.3-7.1,66.3-21.2,93c-14.1,26.7-33.5,49-58.3,67.1s-53.4,31.8-85.9,41.2
		c-32.6,9.4-67.3,14.1-104.2,14.1h-403.7V541.5h447.3c29,0,55.3,6.3,78.9,18.8c23.5,12.6,43.5,28.8,60,48.8
		c16.5,20,29.2,42.8,38.2,68.3c9,25.5,13.5,51.2,13.5,77.1c0,40.8-10.2,79.1-30.6,114.8c-20.4,35.7-50.2,62.2-89.4,79.5
		c47.9,14.1,85.7,39.4,113.6,75.9C4099.6,1061.1,4113.5,1106.8,4113.5,1161.7z M3602.7,680.4V891h216.6c27.5,0,50.8-9.4,70-28.2
		c19.2-18.8,28.8-44.7,28.8-77.7c0-32.2-8.8-57.7-26.5-76.5c-17.7-18.8-39.4-28.2-65.3-28.2H3602.7z M3949.9,1131.1
		c0-14.9-2.6-29.2-7.7-43c-5.1-13.7-12-25.7-20.6-35.9s-18.8-18.2-30.6-24.1c-11.8-5.9-24.7-8.8-38.8-8.8h-249.5v220.1H3844
		c14.9,0,28.8-2.7,41.8-8.2c12.9-5.5,24.1-13.1,33.5-23c9.4-9.8,16.9-21.4,22.4-34.7C3947.2,1160.2,3949.9,1146.1,3949.9,1131.1z"/>
	<path d="M4510.4,1388.9c-50.2,0-95.3-8.6-135.4-25.9s-74-40.6-101.8-70c-27.9-29.4-49.2-63.4-64.2-101.8
		c-14.9-38.4-22.4-78.9-22.4-121.2c0-43.2,7.5-84,22.4-122.4c14.9-38.4,36.3-72.4,64.2-101.8c27.8-29.4,61.8-52.8,101.8-70
		s85.1-25.9,135.4-25.9s95.1,8.6,134.8,25.9s73.4,40.6,101.2,70c27.8,29.4,49.2,63.4,64.1,101.8c14.9,38.5,22.4,79.3,22.4,122.4
		c0,42.4-7.5,82.8-22.4,121.2c-14.9,38.5-36.1,72.4-63.6,101.8c-27.5,29.4-61.2,52.8-101.2,70
		C4605.8,1380.3,4560.6,1388.9,4510.4,1388.9z M4349.2,1069.9c0,27.5,4.1,52.4,12.4,74.8c8.2,22.4,19.6,41.8,34.1,58.3
		s31.6,29.2,51.2,38.2s40.8,13.5,63.6,13.5s43.9-4.5,63.6-13.5c19.6-9,36.7-21.8,51.2-38.2s25.9-36.1,34.1-58.8
		c8.2-22.8,12.4-47.9,12.4-75.3c0-26.7-4.1-51.4-12.4-74.1c-8.2-22.8-19.6-42.4-34.1-58.9c-14.5-16.5-31.6-29.2-51.2-38.2
		c-19.6-9-40.8-13.5-63.6-13.5s-43.9,4.7-63.6,14.1s-36.7,22.4-51.2,38.8c-14.5,16.5-25.9,36.1-34.1,58.9
		C4353.3,1018.5,4349.2,1043.3,4349.2,1069.9z"/>
	<path d="M4937.9,517.9h157.7v661.5c0,22.8,5.5,40.4,16.5,53s26.7,18.8,47.1,18.8c9.4,0,19.8-1.6,31.2-4.7s22.2-7.1,32.4-11.8
		l21.2,120.1c-21.2,10.2-45.9,18-74.2,23.5c-28.2,5.5-53.8,8.2-76.5,8.2c-49.4,0-87.7-13.1-114.8-39.4s-40.6-63.8-40.6-112.4V517.9z
		"/>
	<path d="M5681.9,1345.4c-21.2,9.4-47.1,18.8-77.7,28.2s-62.8,14.1-96.5,14.1c-22,0-42.6-2.8-61.8-8.2
		c-19.2-5.5-36.1-14.3-50.6-26.5s-26.1-27.9-34.7-47.1s-12.9-42.6-12.9-70V881.6h-81.2V760.4h81.2V560.3h157.7v200.1h129.5v121.2
		h-129.5v301.3c0,22,5.7,37.5,17.1,46.5s25.3,13.5,41.8,13.5c16.5,0,32.6-2.7,48.2-8.2s28.2-10.2,37.7-14.1L5681.9,1345.4z"/>
</g>
<g>
	<path class="st1" d="M3208.8,1963.6c-26.9,0-52.7-4.5-77.4-13.5c-24.7-9-46.2-22.4-64.6-40.4l16.8-22.9
		c18.8,17.1,38.3,29.6,58.5,37.7s42.4,12.1,66.6,12.1c30.5,0,55.1-6.4,73.7-19.2c18.6-12.8,27.9-30.6,27.9-53.5
		c0-10.8-2.4-19.8-7.1-27.2c-4.7-7.4-11.8-13.7-21.2-18.8c-9.4-5.2-21.1-9.8-35-13.8c-13.9-4-30.1-8.3-48.4-12.8
		c-19.7-4.5-36.9-9-51.5-13.5c-14.6-4.5-26.6-9.9-36-16.1c-9.4-6.3-16.5-13.9-21.2-22.9c-4.7-9-7.1-20.4-7.1-34.3
		c0-17.5,3.4-32.7,10.1-45.8c6.7-13,16-23.8,27.9-32.3c11.9-8.5,25.6-14.9,41-19.2c15.5-4.3,32-6.4,49.5-6.4
		c27.4,0,51.6,4.6,72.7,13.8c21.1,9.2,37.4,21,49.1,35.3l-18.8,18.2c-11.7-13.5-26.8-23.5-45.4-30.3c-18.6-6.7-38.5-10.1-59.5-10.1
		c-13,0-25.2,1.3-36.7,4c-11.4,2.7-21.4,7-29.9,12.8c-8.5,5.8-15.3,13.4-20.2,22.5c-4.9,9.2-7.4,20.1-7.4,32.6
		c0,10.3,1.7,18.6,5,24.9c3.4,6.3,8.7,11.7,16.1,16.1c7.4,4.5,16.9,8.4,28.6,11.8c11.7,3.4,25.6,7.1,41.7,11.1
		c22,5.4,41.5,10.5,58.5,15.5c17,4.9,31.3,11,42.7,18.2c11.4,7.2,20.2,15.7,26.2,25.6c6.1,9.9,9.1,22.4,9.1,37.7
		c0,31.4-12.2,56.4-36.7,75C3282.2,1954.3,3249.6,1963.6,3208.8,1963.6z"/>
	<path class="st1" d="M3568,1963.6c-24.7,0-47.4-4.8-68.3-14.5s-38.9-22.8-54.2-39.4c-15.3-16.6-27.1-35.9-35.7-57.9
		c-8.5-22-12.8-45.1-12.8-69.3c0-24.7,4.4-48,13.1-70c8.7-22,20.7-41.3,36-57.9c15.2-16.6,33.3-29.7,54.2-39.4
		c20.9-9.6,43.4-14.5,67.6-14.5s46.6,4.8,67.3,14.5c20.6,9.7,38.7,22.8,54.2,39.4c15.5,16.6,27.6,35.9,36.3,57.9
		c8.7,22,13.1,45.3,13.1,70c0,24.2-4.4,47.3-13.1,69.3c-8.7,22-20.8,41.3-36,57.9c-15.3,16.6-33.3,29.7-54.2,39.4
		S3592.3,1963.6,3568,1963.6z M3430.8,1784c0,20.6,3.6,40,10.8,58.2c7.2,18.2,16.9,34,29.3,47.4c12.3,13.5,26.8,24.1,43.4,32
		c16.6,7.9,34.3,11.8,53.2,11.8s36.6-3.9,53.2-11.8c16.6-7.8,31.2-18.7,43.7-32.6c12.6-13.9,22.4-29.9,29.6-48.1
		c7.2-18.2,10.8-37.8,10.8-58.9c0-20.6-3.6-40-10.8-58.2c-7.2-18.2-17.1-34.1-29.6-47.8c-12.6-13.7-27-24.6-43.4-32.6
		c-16.4-8.1-34-12.1-52.8-12.1s-36.6,4-53.2,12.1c-16.6,8.1-31.1,19.1-43.4,33c-12.3,13.9-22.2,30.2-29.6,48.8
		C3434.5,1743.7,3430.8,1763.3,3430.8,1784z"/>
	<path class="st1" d="M3829.8,1956.9v-322.3h-49.1V1607h49.1v-11.4c0-43.1,8.7-76.6,26.2-100.6c17.5-24,41.7-36,72.7-36
		c13.5,0,26.5,2,39,6.1c12.6,4,22.9,9.4,30.9,16.1l-12.1,24.2c-6.3-4.9-14-9-23.2-12.1c-9.2-3.1-18.7-4.7-28.6-4.7
		c-22.9,0-40.5,9.1-52.8,27.2c-12.3,18.2-18.5,44.5-18.5,79.1v12.1h99.6v27.6h-99.6v322.3H3829.8z"/>
	<path class="st1" d="M4184.3,1940.1c-1.8,0.9-4.8,2.6-9.1,5c-4.3,2.5-9.7,4.8-16.1,7.1c-6.5,2.2-13.8,4.3-21.9,6.1
		c-8.1,1.8-16.8,2.7-26.2,2.7s-18.3-1.3-26.6-4c-8.3-2.7-15.6-6.7-21.9-12.1c-6.3-5.4-11.2-11.9-14.8-19.5
		c-3.6-7.6-5.4-16.6-5.4-26.9v-263.7h-49.1V1607h49.1v-119.8h33.6V1607h81.4v27.6H4076v255.7c0,13,4.5,22.8,13.5,29.3
		c9,6.5,19.1,9.8,30.3,9.8c13.9,0,25.9-2.4,36-7.1c10.1-4.7,16.3-7.7,18.5-9.1L4184.3,1940.1z"/>
	<path class="st1" d="M4686.9,1607h33.6l-151.4,349.9h-28.3l-78.7-185l-78.7,185h-28.3L4203.8,1607h33l133.9,312.8l73.3-172.2
		l-59.2-139.9h28.9l48.4,115.7l47.8-115.7h29.6l-59.2,139.9l73.3,172.2L4686.9,1607z"/>
	<path class="st1" d="M4863.2,1963.6c-16.1,0-31.2-2.8-45.1-8.4c-13.9-5.6-26.1-13.2-36.7-22.9c-10.5-9.6-18.7-21.1-24.6-34.3
		c-5.8-13.2-8.7-27.5-8.7-42.7c0-15.2,3.6-29.2,10.8-41.7c7.2-12.6,17.2-23.4,29.9-32.6c12.8-9.2,28.1-16.4,46.1-21.5
		c17.9-5.2,37.7-7.7,59.2-7.7c18.8,0,37.8,1.7,56.9,5c19.1,3.4,36.2,8,51.5,13.8v-34.3c0-33.2-9.4-59.5-28.3-79.1
		c-18.8-19.5-44.4-29.3-76.7-29.3c-17.1,0-35.1,3.6-54.2,10.8c-19.1,7.2-38.5,17.5-58.2,30.9l-12.8-22.9
		c44.8-30.5,87.5-45.7,127.8-45.7c42.2,0,75.4,12.2,99.6,36.7c24.2,24.5,36.3,58.2,36.3,101.3v170.9c0,11.2,4.9,16.8,14.8,16.8v30.3
		c-2.2,0.4-4.6,0.8-7.1,1c-2.5,0.2-4.6,0.3-6.4,0.3c-9,0-16.1-3-21.5-9.1c-5.4-6.1-8.5-13.3-9.4-21.9v-28.9
		c-16.1,21.1-36.8,37.2-61.9,48.4C4919.4,1958,4892.3,1963.6,4863.2,1963.6z M4869.9,1936.7c26,0,49.9-4.9,71.7-14.8
		c21.8-9.9,38.5-22.9,50.1-39c7.2-9.4,10.8-18.4,10.8-26.9v-61.9c-16.1-6.3-33-11-50.5-14.1c-17.5-3.1-35.7-4.7-54.5-4.7
		c-17.5,0-33.4,1.9-47.8,5.7c-14.4,3.8-26.7,9.1-37,15.8c-10.3,6.7-18.3,14.9-23.9,24.6c-5.6,9.7-8.4,20.3-8.4,32
		c0,11.7,2.2,22.7,6.7,33c4.5,10.3,10.8,19.2,18.8,26.6c8.1,7.4,17.6,13.2,28.6,17.5C4845.5,1934.6,4857.3,1936.7,4869.9,1936.7z"/>
	<path class="st1" d="M5303.8,1637.3c-31.4,0.9-58.9,10.2-82.4,27.9c-23.5,17.7-40,42-49.5,73v218.7h-33.6V1607h32.3v86.1
		c12.1-24.7,28.1-44.7,48.1-60.2c20-15.5,41.4-24.3,64.3-26.6c4.5-0.4,8.5-0.7,12.1-0.7c3.6,0,6.5,0,8.7,0V1637.3z"/>
	<path class="st1" d="M5498.9,1963.6c-24.7,0-47.5-4.8-68.6-14.5c-21.1-9.6-39.4-22.9-54.8-39.7c-15.5-16.8-27.6-36.2-36.3-58.2
		c-8.7-22-13.1-45.5-13.1-70.6c0-24.7,4.4-47.9,13.1-69.6c8.7-21.8,20.7-40.8,36-57.2c15.2-16.4,33.3-29.3,54.2-38.7
		s43.4-14.1,67.6-14.1c24.7,0,47.5,4.8,68.6,14.5c21.1,9.7,39.2,22.7,54.5,39c15.2,16.4,27.1,35.4,35.7,57.2
		c8.5,21.8,12.8,44.7,12.8,69c0,2.2,0,5,0,8.4c0,3.4-0.2,5.5-0.7,6.4H5361c1.3,20.2,6.1,38.9,14.1,56.2
		c8.1,17.3,18.3,32.2,30.6,44.7c12.3,12.6,26.6,22.4,42.7,29.6c16.1,7.2,33.4,10.8,51.8,10.8c12.1,0,24-1.7,35.7-5
		c11.7-3.4,22.5-8,32.6-13.8c10.1-5.8,19.1-12.9,26.9-21.2c7.8-8.3,14-17.4,18.5-27.2l29.6,8.1c-4.9,12.6-12.2,24.1-21.9,34.6
		c-9.7,10.5-20.9,19.6-33.6,27.2c-12.8,7.6-26.8,13.6-42,17.8C5530.8,1961.5,5515.1,1963.6,5498.9,1963.6z M5636.2,1768.5
		c-1.3-20.6-6-39.5-13.8-56.5c-7.9-17-17.9-31.7-30.3-44.1c-12.3-12.3-26.6-22-42.7-28.9c-16.1-6.9-33.4-10.4-51.8-10.4
		c-18.4,0-35.7,3.5-51.8,10.4c-16.1,7-30.4,16.6-42.7,28.9c-12.3,12.3-22.2,27.1-29.6,44.4c-7.4,17.3-11.8,36-13.1,56.2H5636.2z"/>
</g>
</svg>