<?xml version="1.0" encoding="UTF-8"?><svg id="Layer_1" xmlns="http://www.w3.org/2000/svg" viewBox="0 0 225.59 49.85"><defs><style>.cls-1{fill-rule:evenodd;}.cls-1,.cls-2,.cls-3{stroke-width:0px;}.cls-1,.cls-3{fill:#009498;}</style></defs><path class="cls-1" d="m20.39,32.64c-.4.05-.8.08-1.21.08-3.8,0-6.88-2.34-6.88-5.24s3.01-5.19,6.76-5.24c-.14-.44-.2-.91-.2-1.37,0-3.35,3.62-6.14,8.08-6.14,1.95,0,3.85.58,5.46,1.67l-8.7,11.55,3.8-1.05-5.33,7.14c-.67-.35-1.27-.83-1.77-1.39Zm17.35-14.15c1.36.21,2.41,1.32,2.54,2.69,0,.47-.15.92-.41,1.31,2.64.87,4.46,2.7,4.46,4.83,0,2.96-3.55,5.37-7.93,5.37-1.01,0-2.02-.13-3-.4-1.12,1.67-3.69,2.82-6.64,2.82-1.24.01-2.47-.2-3.63-.62l16.45-12.81h-6.05l4.21-3.22v.04Z"/><path class="cls-3" d="m41.71,47.96H14.93c-5.32-.01-9.63-4.33-9.64-9.65V11.53c.01-5.33,4.33-9.64,9.66-9.64h26.78c5.33,0,9.65,4.33,9.65,9.66v26.78c-.02,5.33-4.35,9.64-9.67,9.63ZM14.95,4.65c-3.81,0-6.9,3.09-6.91,6.91v26.78c0,3.81,3.1,6.9,6.91,6.9h26.78c3.81,0,6.9-3.09,6.9-6.9h0V11.55c0-3.81-3.09-6.9-6.9-6.91H14.95Z"/><path class="cls-2" d="m68.68,27.12c-1.5.09-3-.21-4.36-.86-1.15-.7-2-1.8-2.39-3.09-.55-1.87-.8-3.82-.73-5.77-.07-1.95.18-3.9.73-5.77.4-1.27,1.25-2.34,2.39-3.03,1.36-.66,2.87-.96,4.38-.86h4.55v2.21h-4.77c-.97-.04-1.94.22-2.76.74-.77.54-1.32,1.35-1.54,2.27-.32,1.44-.46,2.91-.42,4.38-.04,1.48.1,2.95.42,4.39.2.93.75,1.75,1.54,2.29.85.46,1.81.67,2.77.62h5.28v2.38l-5.08.08Z"/><path class="cls-2" d="m89.79,27.15v-2.38h-6.73c-.47.07-.95-.05-1.34-.34-.32-.35-.48-.82-.44-1.3V7.75h-2.7v15.79c-.03.93.3,1.85.9,2.56.8.76,1.87,1.01,2.98,1.02l7.32.03Z"/><path class="cls-2" d="m100.38,7.65c1.2-.03,2.4.14,3.55.49.92.29,1.74.85,2.34,1.61.66.89,1.1,1.92,1.3,3.01.3,1.54.43,3.11.4,4.68.02,1.56-.11,3.13-.4,4.66-.18,1.09-.62,2.12-1.27,3.02-.6.76-1.41,1.32-2.34,1.61-2.31.67-4.77.67-7.08,0-.93-.29-1.75-.85-2.35-1.61-.66-.89-1.11-1.92-1.3-3.02-.3-1.53-.44-3.1-.41-4.66-.03-1.57.11-3.14.41-4.68.19-1.09.64-2.12,1.3-3.01.6-.75,1.41-1.3,2.33-1.59,1.14-.36,2.34-.54,3.54-.52Zm0,2.37c-.98-.05-1.96.19-2.82.68-.75.55-1.27,1.36-1.46,2.27-.33,1.46-.47,2.95-.42,4.45-.04,1.49.1,2.98.42,4.43.18.92.7,1.74,1.46,2.3.85.49,1.83.73,2.82.68.98.05,1.96-.19,2.81-.68.76-.55,1.29-1.36,1.49-2.28.33-1.45.48-2.94.44-4.43.04-1.5-.11-3-.44-4.47-.19-.91-.71-1.73-1.46-2.29-.86-.49-1.85-.73-2.84-.66Z"/><path class="cls-2" d="m126.84,7.75v11.84c.05,1.51-.18,3.02-.67,4.45-.39,1.06-1.17,1.93-2.17,2.43-1.27.56-2.64.82-4.03.76-1.43.06-2.86-.2-4.18-.76-1.04-.49-1.85-1.36-2.26-2.43-.52-1.42-.76-2.94-.7-4.45V7.75h2.74v11.84c-.03,1.06.1,2.12.39,3.13.21.71.69,1.3,1.35,1.64.79.35,1.66.52,2.53.48.86.04,1.72-.13,2.5-.48.64-.36,1.12-.94,1.35-1.64.32-1.01.46-2.07.42-3.13V7.75h2.74Z"/><path class="cls-2" d="m139.28,27.12c1.19.03,2.38-.14,3.52-.49.91-.3,1.71-.85,2.31-1.6.65-.88,1.08-1.91,1.27-2.99.29-1.52.43-3.06.4-4.6.03-1.55-.11-3.09-.4-4.61-.19-1.08-.62-2.1-1.27-2.98-.6-.75-1.4-1.31-2.31-1.61-1.14-.35-2.33-.52-3.52-.49h-6.84v19.37h2.74m0-2.27v-14.83h4.09c.97-.04,1.94.21,2.77.71.74.56,1.25,1.38,1.44,2.29.32,1.45.46,2.94.42,4.42.04,1.48-.1,2.96-.42,4.41-.18.91-.7,1.73-1.44,2.29-.83.51-1.79.75-2.76.71h-4.1Z"/><path class="cls-2" d="m151.32,7.75v19.34h8.04c1.24.04,2.48-.11,3.68-.42.85-.22,1.59-.75,2.08-1.49.5-.92.73-1.96.67-3.01.07-1.24-.24-2.48-.87-3.55-.75-.93-1.87-1.47-3.07-1.46v-.16c.99,0,1.93-.46,2.56-1.22.58-.92.85-1.99.78-3.08.06-1.04-.17-2.08-.65-3.01-.48-.76-1.24-1.31-2.12-1.53-1.28-.3-2.6-.43-3.91-.38h-2.83l-4.35-.03Zm6.96,3.09c.59-.02,1.18.05,1.75.19.39.1.72.36.89.72.2.49.29,1.02.26,1.55.02.52-.06,1.04-.25,1.53-.15.36-.46.63-.84.74-.52.15-1.06.22-1.6.22h-3.08v-4.98h2.88l-.03.03Zm3.1,12.19c-.18.4-.54.7-.96.81-.59.17-1.2.24-1.81.22h-3.2v-5.64h3.09c.65,0,1.3.11,1.92.32.43.14.77.45.96.86.21.58.3,1.19.27,1.8.02.56-.07,1.12-.27,1.64Z"/><path class="cls-2" d="m177.44,7.62c1.3-.04,2.59.13,3.84.48.97.27,1.84.82,2.5,1.59.7.88,1.17,1.91,1.38,3.01.32,1.56.47,3.15.44,4.75.03,1.59-.12,3.18-.44,4.74-.21,1.1-.68,2.14-1.38,3.02-.67.76-1.53,1.31-2.5,1.59-2.5.63-5.11.63-7.6,0-.97-.28-1.85-.83-2.52-1.59-.71-.88-1.18-1.91-1.39-3.02-.33-1.56-.47-3.15-.44-4.74-.03-1.59.12-3.19.44-4.75.21-1.1.69-2.14,1.39-3.01.67-.76,1.54-1.31,2.52-1.59,1.22-.35,2.49-.51,3.76-.48Zm0,3.31c-.79-.05-1.58.16-2.26.58-.61.5-1.01,1.2-1.14,1.98-.27,1.3-.38,2.63-.35,3.96-.03,1.32.08,2.64.35,3.94.13.78.54,1.49,1.14,1.99.68.42,1.46.62,2.26.58.79.05,1.56-.16,2.23-.58.61-.5,1.02-1.21,1.15-1.99.25-1.3.37-2.62.34-3.94.03-1.33-.08-2.66-.34-3.96-.14-.78-.54-1.48-1.15-1.98-.66-.42-1.44-.62-2.23-.58Z"/><path class="cls-2" d="m202.04,27.12v-3.44h-6.59c-.4.02-.79-.1-1.1-.36-.27-.28-.41-.65-.38-1.04V7.8h-4.18v15.38c-.04,1.05.34,2.07,1.05,2.84.83.79,1.95,1.11,3.1,1.11h8.1Z"/><polygon class="cls-2" points="217.06 7.78 211.37 7.78 207.18 7.78 201.52 7.78 201.52 11.07 207.18 11.07 207.18 27.12 211.37 27.12 211.37 11.07 217.06 11.07 217.06 7.78"/><path class="cls-2" d="m68.35,31.91v.73h-6.6v-.73h6.6Zm-2.89,0v8.67h-.83v-8.67h.83Z"/><path class="cls-2" d="m70.51,31.78v2.53c.01.25,0,.49-.01.72-.02.23-.04.43-.08.62l.09.19v4.75h-.79v-8.8h.79Zm2.74,2.55c1.1,0,1.65.56,1.65,1.67v4.58h-.8v-4.36c0-.44-.08-.74-.24-.92-.16-.18-.43-.27-.8-.27-.41,0-.82.09-1.21.28-.4.19-.87.46-1.41.82l-.03-.59c.49-.37.97-.66,1.45-.88.48-.22.95-.33,1.41-.33Z"/><path class="cls-2" d="m79.4,34.33c.87,0,1.51.16,1.92.48.41.32.61.79.62,1.42,0,.54-.1.96-.31,1.26-.22.29-.58.44-1.09.44h-3.53v-.63h3.36c.31,0,.52-.1.63-.3.11-.2.16-.45.15-.75,0-.44-.15-.75-.41-.94-.27-.19-.7-.28-1.28-.28-.49,0-.87.08-1.16.23-.29.15-.49.4-.6.76-.12.36-.18.84-.18,1.45,0,.68.07,1.2.21,1.58.14.37.37.63.68.78.31.15.72.22,1.22.22.35,0,.72-.01,1.1-.04.38-.03.71-.06,1-.11l.09.54c-.18.07-.4.12-.67.16-.27.04-.55.08-.84.1s-.55.04-.77.04c-.69,0-1.24-.11-1.65-.32-.42-.21-.72-.56-.91-1.03-.19-.47-.29-1.1-.29-1.87s.09-1.42.28-1.89c.19-.46.48-.79.89-.99.4-.2.93-.3,1.57-.3Z"/><path class="cls-2" d="m89.05,34.33c.17,0,.36,0,.58.03.22.02.44.04.67.08s.44.09.63.16l-.11.53c-.26-.03-.54-.06-.85-.08-.31-.02-.57-.03-.78-.03-.53,0-.95.07-1.26.22-.31.15-.54.4-.68.77s-.21.87-.21,1.51.07,1.15.21,1.52c.14.37.36.63.68.77.31.15.74.22,1.26.22.13,0,.29,0,.49-.01.2,0,.41-.02.64-.04.23-.02.44-.04.64-.08l.1.54c-.3.09-.63.16-.97.21-.35.05-.69.07-1.04.07-.69,0-1.24-.1-1.66-.31-.42-.21-.72-.55-.91-1.01s-.28-1.09-.28-1.88.09-1.4.28-1.87c.19-.47.49-.81.91-1.01.42-.21.98-.31,1.67-.31Z"/><path class="cls-2" d="m93.4,31.78v7.28c-.01.29.07.52.23.67.16.15.38.23.67.23h.64l.09.59c-.07.03-.16.05-.29.07-.13.02-.25.04-.38.05-.13.01-.24.02-.33.02-.43,0-.77-.13-1.02-.38-.26-.25-.38-.61-.38-1.08v-7.44h.79Z"/><path class="cls-2" d="m98.71,34.33c.68,0,1.22.1,1.63.31.41.21.71.55.89,1.02.18.47.27,1.09.27,1.87s-.09,1.4-.27,1.87c-.18.47-.48.81-.89,1.02-.41.21-.96.31-1.63.31s-1.22-.1-1.63-.31c-.41-.21-.71-.55-.89-1.02-.18-.47-.28-1.09-.28-1.87s.09-1.4.28-1.87c.18-.47.48-.81.89-1.02.41-.21.96-.31,1.63-.31Zm0,.69c-.49,0-.88.08-1.17.23-.29.15-.49.41-.61.77-.12.36-.18.87-.18,1.5s.06,1.15.18,1.52c.12.37.32.63.61.78.28.15.67.23,1.17.23s.87-.08,1.16-.23c.29-.15.49-.41.62-.78.12-.37.18-.88.18-1.52s-.06-1.14-.18-1.5c-.12-.36-.33-.62-.62-.77-.29-.15-.68-.23-1.16-.23Z"/><path class="cls-2" d="m104.07,34.49v4.38c0,.42.08.72.26.91.18.18.47.28.86.28s.75-.09,1.11-.28c.36-.18.8-.45,1.31-.79l.09.58c-.49.39-.96.69-1.41.89-.45.2-.91.3-1.37.3-1.1,0-1.65-.56-1.65-1.67v-4.59h.79Zm4.25,0v6.1h-.63l-.08-1.14-.09-.19v-4.76h.79Z"/><path class="cls-2" d="m112.41,34.33c.4,0,.8.05,1.21.16.4.11.8.27,1.18.48l-.04.53c-.44-.14-.82-.26-1.15-.34-.33-.08-.68-.13-1.04-.13-.39,0-.7.07-.94.22-.24.15-.41.4-.52.76-.11.36-.16.86-.16,1.5s.05,1.14.16,1.5c.11.36.28.62.51.78.23.16.53.23.9.23.26,0,.5-.04.71-.11.21-.07.44-.19.69-.35.24-.16.52-.36.84-.59l.06.6c-.38.34-.78.61-1.19.82-.42.21-.86.32-1.33.32-.77,0-1.32-.26-1.66-.79-.34-.52-.5-1.33-.5-2.42,0-.79.08-1.41.25-1.88.16-.47.41-.8.74-1.01.33-.21.76-.31,1.29-.31Zm3.04-2.55v8.8h-.62l-.1-1.07-.08-.08v-4.21l.06-.19c-.03-.23-.05-.45-.06-.65,0-.2,0-.42,0-.65v-1.95h.79Z"/><path class="cls-2" d="m123.44,31.79c.65,0,1.16.07,1.56.22.39.15.68.4.86.75.18.36.27.86.27,1.51,0,.49-.05.89-.16,1.2-.11.31-.28.56-.52.72-.23.17-.54.28-.92.34v.05c.14.04.28.12.42.23.13.11.26.25.36.41.11.17.19.36.25.59l.88,2.75h-.88l-.83-2.73c-.12-.36-.28-.62-.48-.77-.21-.15-.46-.23-.77-.23-.49,0-.93,0-1.31,0-.38,0-.7-.01-.95-.02-.25,0-.44-.02-.57-.03l.04-.67h2.73c.47,0,.84-.06,1.11-.17.27-.1.47-.29.58-.55.12-.26.18-.63.18-1.1s-.06-.85-.18-1.11c-.12-.26-.31-.44-.58-.54-.27-.1-.64-.15-1.11-.15-.67,0-1.25,0-1.74,0-.49,0-.81.01-.98.02l-.18-.64c.31-.03.6-.06.87-.08.27-.02.56-.03.89-.03.32,0,.71,0,1.16,0Zm-2.1.11v8.67h-.82v-8.67h.82Z"/><path class="cls-2" d="m131.26,31.74c.62,0,1.14.08,1.57.23.43.16.77.41,1.03.75.26.35.45.81.57,1.39.12.58.18,1.29.18,2.12s-.06,1.55-.18,2.12c-.12.58-.31,1.04-.57,1.39-.26.35-.6.6-1.03.75-.43.16-.95.23-1.57.23s-1.14-.08-1.57-.23c-.43-.16-.77-.41-1.03-.75-.26-.35-.45-.81-.57-1.39-.12-.58-.18-1.29-.18-2.12s.06-1.55.18-2.12c.12-.58.31-1.04.57-1.39.26-.35.6-.6,1.03-.75.43-.16.95-.23,1.57-.23Zm0,.74c-.62,0-1.11.12-1.48.36-.36.24-.62.63-.77,1.18-.15.54-.23,1.29-.23,2.23s.08,1.68.23,2.23c.15.54.41.94.77,1.18.36.24.86.36,1.48.36s1.11-.12,1.47-.36c.36-.24.62-.63.77-1.18.15-.54.23-1.29.23-2.23s-.08-1.68-.23-2.23c-.16-.54-.41-.94-.77-1.18-.36-.24-.85-.36-1.47-.36Z"/><path class="cls-2" d="m137.43,31.91v8.67h-.82v-8.67h.82Z"/><path class="cls-2" d="m145.04,34.33c.17,0,.36,0,.58.03.22.02.44.04.67.08s.44.09.63.16l-.11.53c-.26-.03-.54-.06-.85-.08-.31-.02-.57-.03-.78-.03-.53,0-.95.07-1.26.22-.31.15-.54.4-.68.77s-.21.87-.21,1.51.07,1.15.21,1.52c.14.37.36.63.68.77.31.15.74.22,1.26.22.13,0,.29,0,.49-.01.2,0,.41-.02.64-.04.23-.02.44-.04.64-.08l.1.54c-.3.09-.63.16-.97.21-.35.05-.69.07-1.04.07-.69,0-1.24-.1-1.66-.31-.42-.21-.72-.55-.91-1.01s-.28-1.09-.28-1.88.09-1.4.28-1.87c.19-.47.49-.81.91-1.01.42-.21.98-.31,1.67-.31Z"/><path class="cls-2" d="m150.98,34.33c.68,0,1.22.1,1.63.31.41.21.71.55.89,1.02.18.47.27,1.09.27,1.87s-.09,1.4-.27,1.87c-.18.47-.48.81-.89,1.02-.41.21-.96.31-1.63.31s-1.22-.1-1.63-.31c-.41-.21-.71-.55-.89-1.02-.18-.47-.28-1.09-.28-1.87s.09-1.4.28-1.87c.18-.47.48-.81.89-1.02.41-.21.96-.31,1.63-.31Zm0,.69c-.49,0-.88.08-1.17.23-.29.15-.49.41-.61.77-.12.36-.18.87-.18,1.5s.06,1.15.18,1.52c.12.37.32.63.61.78.28.15.67.23,1.17.23s.87-.08,1.16-.23c.29-.15.49-.41.62-.78.12-.37.18-.88.18-1.52s-.06-1.14-.18-1.5-.33-.62-.62-.77c-.29-.15-.68-.23-1.16-.23Z"/><path class="cls-2" d="m156.24,34.49l.06,1.16.08.19v4.75h-.79v-6.1h.65Zm2.61-.15c.51,0,.91.14,1.18.42.28.28.41.7.41,1.25v4.58h-.77v-4.36c0-.43-.09-.73-.27-.92-.18-.18-.45-.28-.81-.28-.23,0-.46.04-.69.11s-.46.19-.72.36c-.26.16-.56.38-.91.63l-.05-.58c.45-.4.89-.71,1.32-.91.43-.21.86-.31,1.3-.31Zm4.09,0c.52,0,.92.14,1.19.43.28.29.42.7.42,1.24v4.58h-.79v-4.36c0-.41-.1-.71-.26-.91-.17-.19-.44-.29-.82-.29-.24,0-.48.04-.7.12-.22.08-.46.2-.71.36-.25.16-.55.37-.89.62l-.05-.58c.45-.4.89-.71,1.33-.91.43-.21.86-.31,1.29-.31Z"/><path class="cls-2" d="m167.27,34.49l.09,1.22.05.11v4.02l-.04.15c.03.23.04.45.04.65v2.5h-.79v-8.66h.65Zm2.59-.15c.77,0,1.32.26,1.65.79s.49,1.34.49,2.43c0,.78-.08,1.4-.24,1.87-.16.47-.41.8-.74,1.01-.34.21-.77.31-1.3.31-.4,0-.8-.06-1.2-.17s-.79-.28-1.19-.5l.04-.5c.44.14.82.26,1.15.34.33.08.68.13,1.04.13.39,0,.71-.07.94-.22.23-.15.41-.4.52-.76.11-.36.16-.86.16-1.5s-.05-1.11-.16-1.48c-.1-.36-.27-.63-.49-.79-.22-.16-.52-.25-.9-.25-.35,0-.7.09-1.05.26-.35.18-.76.45-1.23.82l-.05-.58c.25-.25.52-.47.8-.65.28-.18.57-.32.87-.41.3-.1.6-.14.88-.14Z"/><path class="cls-2" d="m178.19,36.86v.6s-2.99.03-2.99.03c-.32,0-.55.09-.7.26-.15.16-.22.39-.22.69v.53c0,.34.09.6.26.77.18.17.44.25.8.25.27,0,.56-.04.89-.14s.64-.25.96-.44c.32-.19.6-.42.84-.68v.62c-.1.13-.25.26-.43.41-.19.15-.41.3-.65.44-.25.14-.52.26-.82.35s-.61.14-.92.14c-.35,0-.66-.06-.92-.19-.26-.13-.46-.31-.61-.56-.15-.25-.22-.55-.22-.9v-.7c0-.47.14-.83.42-1.09.28-.26.68-.38,1.19-.38h3.12Zm-1.53-2.53c.42,0,.77.06,1.06.18.29.12.51.32.66.59.15.27.23.64.23,1.1v4.38h-.63l-.13-1.33-.05-.11v-2.93c0-.39-.09-.68-.27-.88-.18-.2-.52-.3-1.02-.3-.37,0-.8.02-1.28.05-.49.03-.96.08-1.42.13l-.08-.59c.28-.05.59-.09.91-.13.32-.04.65-.07.99-.1.34-.03.69-.04,1.03-.04Z"/><path class="cls-2" d="m181.33,34.49l.06,1.16.06.19v4.75h-.79v-6.1h.67Zm2.87-.15c1.1,0,1.65.56,1.65,1.67v4.58h-.79v-4.36c0-.44-.08-.74-.25-.92-.17-.18-.44-.27-.8-.27-.41,0-.81.1-1.21.29-.39.19-.86.47-1.41.82l-.04-.59c.49-.39.98-.68,1.45-.89.47-.21.94-.31,1.4-.31Z"/><path class="cls-2" d="m188,34.49l1.8,4.76c.04.12.09.23.13.35.05.12.09.23.12.35h.26l-.26.63h-.29c-.07,0-.13-.02-.18-.06s-.09-.09-.12-.16l-2.31-5.88h.85Zm5.13,0l-2.56,6.53c-.1.26-.22.51-.36.75-.14.24-.3.47-.5.67-.19.2-.42.37-.67.5-.26.13-.55.22-.89.25l-.1-.52c.5-.17.88-.4,1.14-.7.26-.3.47-.65.64-1.05l.28-.68c.07-.16.13-.33.19-.51.06-.18.12-.35.18-.5l1.79-4.75h.85Z"/><path class="cls-2" d="m198.04,38.49v-3.38h-1.3v-.63h3.26v.63h-1.3v3.38h-.67Z"/><path class="cls-2" d="m200.45,38.49v-4h.6l1.38,2.84,1.38-2.84h.6v4h-.63v-2.57l-1.23,2.57h-.27l-1.23-2.57v2.57h-.63Z"/></svg>